<svg width="320" height="180" viewBox="0 0 320 180" fill="none" xmlns="http://www.w3.org/2000/svg">
<g clip-path="url(#clip0)">
<path d="M103.011 97.1068C103.011 101.767 105.448 104.155 110.378 104.155C115.308 104.155 117.745 101.825 117.745 97.1068V72.5243H123.603V96.9903C123.603 101.243 122.501 104.33 120.239 106.311C118.035 108.291 114.728 109.223 110.32 109.223C105.912 109.223 102.605 108.233 100.401 106.311C98.1971 104.33 97.095 101.243 97.095 96.9903V72.5243H102.953V97.1068H103.011Z" fill="#131520"/>
<path d="M130.738 120V82.2524H136.422V83.8835C138.858 82.4272 141.12 81.6699 143.209 81.6699C146.689 81.6699 149.241 82.7185 150.807 84.8738C152.431 87.0291 153.243 90.5825 153.243 95.5922C153.243 100.602 152.315 104.155 150.459 106.194C148.603 108.233 145.587 109.282 141.468 109.282C140.018 109.282 138.394 109.107 136.48 108.816V120H130.738ZM142.164 86.7961C140.54 86.7961 138.858 87.1456 137.234 87.9029L136.422 88.2524V103.806C137.814 104.097 139.38 104.214 141.062 104.214C143.441 104.214 145.065 103.515 145.993 102.175C146.921 100.777 147.385 98.4466 147.385 95.1262C147.385 89.5922 145.645 86.7961 142.164 86.7961Z" fill="#131520"/>
<path d="M174.299 94.835V89.6505H184.566V108C183.638 108.233 181.723 108.524 178.823 108.816C175.923 109.107 173.835 109.223 172.559 109.223C167.106 109.223 163.336 107.709 161.248 104.68C159.16 101.651 158.174 96.9321 158.174 90.466C158.174 84 159.218 79.2816 161.364 76.369C163.51 73.3981 167.164 71.9418 172.385 71.9418C175.459 71.9418 178.939 72.2913 182.767 72.9903L184.624 73.3398L184.392 78C180.157 77.4175 176.329 77.1845 172.965 77.1845C169.6 77.1845 167.28 78.1165 166.062 80.0389C164.844 81.9612 164.206 85.4563 164.206 90.5826C164.206 95.7088 164.786 99.2622 165.946 101.243C167.106 103.223 169.484 104.155 173.081 104.155C175.633 104.155 177.547 103.981 178.823 103.689V94.835H174.299Z" fill="#131520"/>
<path d="M207.071 82.2524H212.756V108.641H207.071V107.01C204.519 108.466 202.141 109.223 199.995 109.223C196.399 109.223 193.962 108.233 192.744 106.311C191.526 104.33 190.888 100.951 190.888 96.0583V82.2524H196.631V96.1165C196.631 99.2622 196.921 101.417 197.443 102.524C197.965 103.631 199.183 104.155 201.097 104.155C203.011 104.155 204.751 103.806 206.317 103.107L207.129 102.816V82.2524H207.071Z" fill="#131520"/>
<path d="M239.148 90.4078V102.466C239.206 103.223 239.38 103.806 239.728 104.155C240.076 104.505 240.656 104.738 241.41 104.854L241.236 109.223C238.22 109.223 235.9 108.583 234.217 107.243C231.433 108.524 228.591 109.223 225.749 109.223C220.528 109.223 217.918 106.427 217.918 100.835C217.918 98.1554 218.614 96.2331 220.064 95.0098C221.456 93.7865 223.661 93.0874 226.619 92.8544L233.405 92.2719V90.3496C233.405 88.9515 233.115 87.9612 232.477 87.3787C231.839 86.7962 230.969 86.5049 229.751 86.5049C227.489 86.5049 224.705 86.6214 221.34 86.9127L219.658 87.0292L219.426 82.9515C223.255 82.0195 226.735 81.5535 229.983 81.5535C233.173 81.5535 235.494 82.2525 236.944 83.6506C238.452 85.1651 239.148 87.3787 239.148 90.4078ZM227.373 96.9321C224.937 97.1651 223.719 98.4467 223.719 100.893C223.719 103.34 224.763 104.563 226.909 104.563C228.649 104.563 230.505 104.272 232.477 103.748L233.405 103.456V96.3496L227.373 96.9321Z" fill="#131520"/>
<path d="M246.341 108.641V82.2524H252.025V85.3981C254.983 83.4757 257.999 82.1942 260.958 81.6699V87.4369C257.941 88.0194 255.389 88.835 253.243 89.767L252.083 90.233V108.641H246.341Z" fill="#131520"/>
<path d="M286.48 71.301V108.641H280.795V107.243C278.243 108.524 275.865 109.223 273.777 109.223C270.354 109.223 267.802 108.175 266.236 106.136C264.67 104.039 263.858 100.602 263.858 95.7088C263.858 90.8156 264.728 87.2622 266.526 85.0486C268.266 82.835 271.05 81.7282 274.821 81.7282C276.097 81.7282 278.069 81.9612 280.795 82.4272V71.3593H286.48V71.301ZM279.867 103.165L280.737 102.816V87.1457C278.649 86.7962 276.677 86.6214 274.879 86.6214C271.34 86.6214 269.542 89.5923 269.542 95.4758C269.542 98.7379 269.948 100.952 270.76 102.233C271.572 103.456 272.907 104.097 274.705 104.097C276.503 104.097 278.243 103.806 279.867 103.165Z" fill="#131520"/>
<path d="M81.4617 89.7999C79.8376 93.3533 77.9814 96.6154 76.2993 99.4116C74.5592 102.441 72.877 105.179 70.7309 108.208C69.9188 109.373 68.9907 110.654 67.9467 111.994C65.2784 115.314 61.2181 118.344 56.7518 117.12C52.2274 115.839 49.7913 111.703 47.2391 108.091C43.2948 102.615 39.5825 96.6155 36.5662 89.9747C33.666 83.5669 30.9978 75.4698 35.1161 68.9455C36.2182 67.198 37.6683 65.7999 39.2924 64.6349C40.3945 63.8776 41.6126 63.2951 42.8307 62.7708C51.2994 59.2756 61.8562 59.3921 70.6149 61.431C73.3411 62.0718 75.8933 63.0038 78.1554 64.4019C79.6636 65.3339 80.9977 66.5572 82.0997 68.0135C83.7819 70.2271 84.5939 72.5572 84.826 74.9455C85.464 79.897 83.6079 85.1397 81.4617 89.7999Z" fill="#131520"/>
</g>
<defs>
<clipPath id="clip0">
<rect width="254.062" height="60" fill="white" transform="translate(33 60)"/>
</clipPath>
</defs>
</svg>
