<?xml version="1.0" encoding="utf-8"?>
<!-- Generator: Adobe Illustrator 21.0.0, SVG Export Plug-In . SVG Version: 6.00 Build 0)  -->
<svg version="1.1" id="AW" xmlns="http://www.w3.org/2000/svg" xmlns:xlink="http://www.w3.org/1999/xlink" x="0px" y="0px"
	 viewBox="0 0 1000 518.371" style="enable-background:new 0 0 1000 518.371;" xml:space="preserve">
<style type="text/css">
	.st0{fill:url(#SVGID_1_);}
	.st1{fill:#242936;}
</style>
<g>
	<g>
		<linearGradient id="SVGID_1_" gradientUnits="userSpaceOnUse" x1="259.1023" y1="414.697" x2="259.1023" y2="103.6743">
			<stop  offset="0" style="stop-color:#6738BD"/>
			<stop  offset="1" style="stop-color:#EE3932"/>
		</linearGradient>
		<polygon class="st0" points="303.0876,147.6594 303.0876,209.864 352.4092,259.1856 281.0949,330.4999 281.095,125.6668 
			259.1024,103.6743 103.5909,259.1857 215.117,370.7118 215.117,308.5073 165.7954,259.1857 237.1097,187.8714 237.1096,392.7045 
			259.1022,414.697 414.6137,259.1855 		"/>
		<g>
			<path class="st1" d="M769.0456,161.9187v10.7254c-13.4569-9.0054-29.6026-13.7343-47.1012-13.7343
				c-56.9561,0-99.9046,43.1107-99.9046,100.2801s42.9485,100.2844,99.9046,100.2844c17.7291,0,33.8705-4.6051,47.1012-13.38
				v10.3711h47.9165V161.9187H769.0456z M722.3199,313.4401c-29.6922,0-51.2412-22.8166-51.2412-54.2502
				c0-31.4335,21.549-54.2458,51.2412-54.2458c19.0181,0,36.8241,8.8987,46.7257,23.286v61.9197
				C759.144,304.5371,741.338,313.4401,722.3199,313.4401z"/>
			<polygon class="st1" points="638.161,356.4643 608.7959,313.0645 527.5595,313.0645 629.825,161.9183 445.856,161.9183 
				475.2213,205.3181 546.0372,205.3181 443.7715,356.4643 			"/>
			<polygon class="st1" points="847.9462,103.6743 895.8583,151.5839 895.8583,103.6744 			"/>
			<polygon class="st1" points="833.8016,161.9185 847.9465,182.8229 847.9465,356.4652 895.8587,356.4652 895.8587,161.9182 			"/>
		</g>
	</g>
</g>
</svg>
